<?xml version="1.0" standalone="no"?><svg xmlns="http://www.w3.org/2000/svg" viewBox="0 0 1440 320"><path fill="#008763" fill-opacity="1" d="M0,320L34.3,282.7C68.6,245,137,171,206,170.7C274.3,171,343,245,411,277.3C480,309,549,299,617,288C685.7,277,754,267,823,266.7C891.4,267,960,277,1029,240C1097.1,203,1166,117,1234,117.3C1302.9,117,1371,203,1406,245.3L1440,288L1440,320L1405.7,320C1371.4,320,1303,320,1234,320C1165.7,320,1097,320,1029,320C960,320,891,320,823,320C754.3,320,686,320,617,320C548.6,320,480,320,411,320C342.9,320,274,320,206,320C137.1,320,69,320,34,320L0,320Z"></path></svg>